<?xml version="1.0" encoding="UTF-8" standalone="no"?>
<svg width="200px" height="200px" viewBox="0 0 50 50" version="1.1" xmlns="http://www.w3.org/2000/svg" xmlns:xlink="http://www.w3.org/1999/xlink" xmlns:sketch="http://www.bohemiancoding.com/sketch/ns">
    <!-- Generator: Sketch 3.2.2 (9983) - http://www.bohemiancoding.com/sketch -->
    <title>Slice 1</title>
    <desc>Created with Sketch.</desc>
    <defs></defs>
    <g id="Page-1" stroke="none" stroke-width="1" fill="none" fill-rule="evenodd" sketch:type="MSPage">
        <g id="icons" sketch:type="MSLayerGroup" transform="translate(-190.000000, 9.000000)" fill="#FFFFFF">
            <g id="cloud" transform="translate(198.000000, 2.000000)" sketch:type="MSShapeGroup">
                <path class="cloud-path" d="M29.872,11.459 C29.362,11.201 28.68,11.153 28.006,11.281 C28.504,10.121 29.05,9.01 29.25,7.551 L29.25,4.888 C29.108,3.964 28.779,3.228 28.451,2.49 C27.992,1.943 27.455,1.471 26.941,0.981 C26.247,0.698 25.602,0.365 24.721,0.27 L22.5,0.27 C22.352,0.419 21.979,0.341 21.701,0.359 C20.867,0.589 20.051,0.84 19.303,1.159 C18.659,1.61 18.028,2.075 17.438,2.58 C17.248,2.952 16.873,3.14 16.728,3.556 C16.325,3.745 16.32,4.333 15.929,4.534 C15.775,4.035 15.19,3.97 14.775,3.735 C11.262,3.409 8.589,4.64 6.783,6.31 C6.697,6.668 6.438,6.854 6.25,7.109 C6.215,7.43 6.131,7.701 5.983,7.909 L5.983,10.04 C6.086,10.145 6.084,10.354 6.072,10.573 C6.228,10.801 6.137,11.277 6.338,11.461 C6.265,11.712 6.463,11.691 6.427,11.905 C6.415,12.023 6.726,12.236 6.516,12.26 C5.932,12.238 5.395,12.264 4.917,12.349 C2.764,13.511 1.561,15.623 1.01,18.388 C0.97,19.109 1.048,19.711 1.098,20.341 C1.243,20.493 1.367,20.664 1.365,20.963 C2.347,22.408 3.878,23.305 6.16,23.449 C6.838,23.476 7.448,23.435 8.025,23.361 C8.502,23.476 9.035,23.534 9.534,23.627 C14.638,23.901 19.715,23.554 24.807,23.538 C25.747,23.205 27.14,23.325 28.271,23.183 C28.288,23.052 28.486,23.101 28.626,23.094 C28.684,22.975 28.815,22.928 28.981,22.917 C29.087,22.697 29.285,22.569 29.513,22.473 C30.018,22.533 30.242,22.313 30.668,22.295 C31.184,21.894 31.686,21.479 32.089,20.963 C32.518,20.238 32.823,19.388 32.976,18.388 C33.053,16.564 32.931,14.941 32.355,13.77 C31.666,12.862 31.013,11.917 29.872,11.459 L29.872,11.459 Z M8.736,12.436 C8.657,12.491 8.577,12.543 8.558,12.436 C8.581,12.324 8.736,12.346 8.736,12.436 L8.736,12.436 Z M30.404,17.586 C30.205,17.832 30.058,18.128 29.96,18.474 C29.74,18.728 29.554,19.016 29.427,19.362 C28.912,19.764 28.694,20.464 28.006,20.694 C28.178,20.478 28.091,19.951 28.006,19.717 C27.938,19.697 27.831,19.714 27.829,19.628 C26.863,19.61 26.561,20.255 26.496,21.138 L25.076,21.138 C24.879,20.944 25.163,20.776 25.076,20.428 C24.901,19.774 24.914,18.932 24.454,18.563 C23.215,18.626 22.711,19.425 22.145,20.161 C22.111,20.669 22.152,21.1 22.5,21.227 C22.377,21.429 21.882,21.26 21.612,21.315 C21.671,21.018 21.888,20.88 21.968,20.605 C21.594,20.343 21.355,20.843 21.168,21.049 L21.08,21.049 C21.085,21.171 21.038,21.244 20.992,21.315 C20.853,21.292 20.93,21.12 20.992,21.049 L21.08,21.049 C21.338,20.419 21.728,19.921 22.057,19.361 C22.33,18.853 23.03,18.337 22.679,17.496 C21.639,17.523 21.507,18.455 20.813,18.829 C20.283,19.393 19.769,19.975 19.304,20.605 C19.23,20.827 19.187,21.081 19.215,21.405 C16.903,21.637 14.321,21.602 11.934,21.76 C11.952,21.314 12.223,20.921 12.022,20.517 C11.952,20.496 11.846,20.514 11.844,20.428 C10.963,20.524 10.686,21.223 10.334,21.848 L9.713,21.848 C9.854,21.25 10.112,20.768 10.334,20.25 C10.298,20.052 10.383,19.823 10.334,19.628 C10.277,19.4 10.232,19.398 10.067,19.274 C9.143,19.474 8.891,20.347 8.292,20.872 C8.216,21.211 8.028,21.437 7.936,21.76 C7.607,21.823 7.556,21.608 7.227,21.671 C7.268,20.786 8.132,20.279 7.936,19.451 C7.936,19.334 7.781,19.37 7.759,19.274 C7.105,19.3 6.758,19.635 6.426,19.984 C6.19,19.713 6.659,19.391 6.515,18.919 C6.41,18.876 6.314,18.824 6.249,18.741 C5.148,18.944 4.624,19.721 4.206,20.606 C3.908,20.3 4.33,19.963 4.295,19.628 C4.518,19.407 4.547,18.992 4.74,18.74 C4.99,18.131 5.385,17.668 5.717,17.142 C5.668,16.776 5.387,16.644 4.918,16.698 C4.23,16.927 3.873,17.488 3.497,18.03 C3.3,17.885 3.622,17.509 3.675,17.32 C3.824,17.085 3.881,16.756 4.03,16.521 C4.267,15.989 4.719,15.671 4.918,15.1 C4.481,14.928 4.04,15.445 3.764,15.722 C3.594,15.659 3.782,15.215 3.942,15.189 C3.919,14.871 4.207,14.864 4.207,14.567 C4.986,13.835 5.768,13.108 7.05,12.88 C7.377,12.878 7.442,13.138 7.583,13.324 C7.736,13.32 7.811,13.393 7.849,13.502 C7.904,13.626 8.191,13.515 8.205,13.679 C8.55,13.61 8.704,13.349 9.004,13.236 C9.074,12.832 9.129,12.414 9.27,12.081 C9.246,11.722 8.988,11.594 9.093,11.104 C9.199,10.619 9.519,10.347 9.626,9.861 C9.601,9.469 9.156,9.909 9.093,9.683 C9.058,9.145 9.472,9.056 9.715,8.795 C9.886,8.433 10.326,8.341 10.425,7.907 C10.42,7.556 10.243,7.378 9.892,7.374 C10.077,7.056 10.33,6.804 10.514,6.486 C11.825,5.989 14.432,5.29 15.665,6.308 C15.645,7.364 15.519,8.526 16.463,8.617 C16.892,8.601 17.047,8.313 17.086,7.907 C17.19,7.981 17.324,8.024 17.529,7.995 C18.022,7.836 18.197,7.361 18.418,6.929 C18.592,6.423 18.99,6.139 19.217,5.686 C19.601,5.42 19.843,5.01 20.283,4.798 C20.516,4.351 21.298,4.452 21.348,3.821 C21.372,3.411 21.056,3.342 20.814,3.199 C20.154,3.13 19.921,3.49 19.482,3.643 C18.978,3.997 18.54,4.416 18.062,4.797 C18.072,4.904 17.933,4.852 18.062,4.797 C18.04,4.479 18.329,4.472 18.329,4.176 C18.619,4.141 18.604,3.8 18.772,3.643 C19.235,3.365 19.607,2.997 20.193,2.844 C20.339,2.634 20.714,2.655 20.903,2.489 C21.182,2.384 21.573,2.389 21.792,2.223 C21.907,2.345 22.177,2.311 22.414,2.312 C22.621,2.283 22.78,2.205 22.947,2.134 L24.545,2.134 C25.443,2.241 26.04,2.653 26.588,3.111 C26.957,3.66 27.228,4.306 27.387,5.064 L27.387,6.84 C27.223,8.66 26.442,9.861 25.877,11.28 L25.877,11.991 C25.877,12.08 25.949,12.096 25.965,12.168 C25.99,12.351 26.204,12.345 26.321,12.434 C26.651,12.34 26.608,12.621 26.765,12.701 C27.016,12.656 27.142,12.486 27.386,12.434 L28.806,12.434 C28.882,12.566 29.093,12.563 29.251,12.612 C29.288,12.723 29.366,12.794 29.517,12.79 C29.69,13.21 30.033,13.458 30.228,13.855 C30.442,14.233 30.584,14.682 30.761,15.098 C30.775,15.203 30.746,15.35 30.85,15.365 C30.707,16.114 30.514,16.809 30.404,17.586 L30.404,17.586 Z" id="Shape"></path>
            </g>
        </g>
    </g>
</svg>