<?xml version="1.0" encoding="UTF-8" standalone="no"?>
<svg width="200px" height="200px" viewBox="0 0 50 50" version="1.1" xmlns="http://www.w3.org/2000/svg" xmlns:xlink="http://www.w3.org/1999/xlink" xmlns:sketch="http://www.bohemiancoding.com/sketch/ns">
    <!-- Generator: Sketch 3.2.2 (9983) - http://www.bohemiancoding.com/sketch -->
    <title>Slice 1</title>
    <desc>Created with Sketch.</desc>
    <defs></defs>
    <g id="Page-1" stroke="none" stroke-width="1" fill="none" fill-rule="evenodd" sketch:type="MSPage">
        <g id="icons" sketch:type="MSLayerGroup" transform="translate(-70.000000, -8.000000)" fill="#FFFFFF">
            <g id="discuss" transform="translate(79.000000, 20.000000)" sketch:type="MSShapeGroup">
                <path d="M31.979,5.518 C31.97,4.668 31.81,3.831 31.586,3.017 C31.357,2.188 30.827,1.591 29.999,1.273 C29.143,0.944 28.252,0.793 27.346,0.74 C26.682,0.702 26.015,0.719 25.349,0.718 C23.987,0.716 22.625,0.718 21.448,0.718 C20.689,0.691 20.115,0.652 19.54,0.655 C18.118,0.663 16.696,0.694 15.274,0.709 C14.238,0.72 13.412,1.165 12.735,1.92 C12.531,2.148 12.391,2.413 12.353,2.727 C12.286,3.296 12.124,3.855 12.181,4.438 C12.196,4.586 12.192,4.748 12.147,4.887 C11.985,5.389 12.007,5.904 12.006,6.417 C12.001,7.749 12.037,9.082 11.99,10.412 C11.955,11.397 12.146,12.333 12.397,13.268 C12.486,13.601 12.671,13.864 12.968,14.056 C13.169,14.186 13.372,14.331 13.527,14.51 C13.845,14.881 14.254,15.032 14.718,15.08 C14.958,15.104 15.202,15.104 15.439,15.15 C16.403,15.338 17.367,15.274 18.329,15.154 C18.958,15.075 19.583,14.962 20.211,14.878 C20.617,14.824 20.69,14.87 20.823,15.234 C20.969,15.631 21.105,16.032 21.234,16.434 C21.774,18.113 22.851,19.388 24.236,20.43 C24.404,20.557 24.586,20.674 24.777,20.761 C24.939,20.834 25.121,20.865 25.298,20.898 C25.461,20.928 25.609,20.814 25.617,20.662 C25.629,20.481 25.633,20.299 25.631,20.118 C25.625,19.27 25.63,18.423 25.606,17.576 C25.585,16.84 25.749,16.136 25.922,15.431 C25.943,15.343 25.968,15.248 26.022,15.18 C26.072,15.115 26.158,15.047 26.236,15.037 C26.414,15.015 26.598,15.01 26.778,15.027 C27.737,15.119 28.635,14.866 29.521,14.548 C30.642,14.147 31.182,13.213 31.631,12.203 C31.655,12.15 31.654,12.085 31.662,12.025 C31.769,11.218 31.939,10.412 31.97,9.602 C32.021,8.243 31.995,6.879 31.979,5.518 L31.979,5.518 Z M30.607,9.231 C30.492,10.041 30.376,10.842 30.168,11.633 C29.98,12.345 29.526,12.783 28.848,13.003 C28.129,13.235 27.405,13.452 26.635,13.438 C26.272,13.432 25.908,13.425 25.545,13.433 C25.111,13.443 24.879,13.612 24.741,14.031 C24.667,14.258 24.599,14.499 24.592,14.736 C24.57,15.371 24.545,15.999 24.426,16.63 C24.332,17.13 24.384,17.656 24.364,18.17 C24.361,18.256 24.32,18.341 24.298,18.427 C24.195,18.379 24.073,18.352 23.992,18.28 C23.673,17.997 23.411,17.667 23.209,17.288 C22.676,16.29 22.249,15.265 22.324,14.098 C22.33,14.008 22.332,13.915 22.318,13.827 C22.258,13.443 22.085,13.143 21.695,13.009 C21.609,12.979 21.527,12.925 21.44,12.915 C20.72,12.833 20,12.756 19.277,12.687 C19.16,12.676 19.028,12.682 18.919,12.723 C18.003,13.062 17.059,12.899 16.133,12.841 C15.089,12.776 14.704,12.279 14.534,11.215 C14.342,10.011 14.368,8.803 14.379,7.595 C14.379,6.929 14.354,6.262 14.386,5.597 C14.429,4.693 14.504,3.787 14.736,2.907 C14.79,2.704 14.865,2.504 14.958,2.315 C14.983,2.263 15.135,2.214 15.181,2.242 C15.515,2.448 15.865,2.415 16.232,2.381 C16.653,2.343 17.08,2.338 17.503,2.352 C18.894,2.4 20.289,2.409 21.673,2.534 C23.76,2.722 25.846,2.636 27.932,2.643 C28.082,2.643 28.24,2.64 28.382,2.599 C28.784,2.484 29.078,2.654 29.365,2.91 C29.69,3.2 29.942,3.532 30.056,3.954 C30.214,4.536 30.429,5.114 30.493,5.708 C30.616,6.875 30.776,8.04 30.607,9.231 L30.607,9.231 Z M19.652,15.986 C19.289,16.057 19.048,16.285 18.973,16.636 C18.917,16.899 18.924,17.178 18.929,17.449 C18.95,18.617 18.634,19.65 17.784,20.496 C17.556,20.723 17.332,20.85 17.013,20.903 C15.73,21.116 14.437,21.229 13.146,21.367 C12.757,21.409 12.367,21.427 11.974,21.316 C11.716,21.243 11.432,21.269 11.167,21.212 C10.595,21.09 10.265,21.358 10.009,21.837 C9.67,22.476 9.285,23.09 8.941,23.726 C8.724,24.125 8.395,24.359 7.981,24.502 C7.83,24.554 7.647,24.442 7.668,24.286 C7.752,23.66 7.845,23.035 7.946,22.412 C8.008,22.025 8.117,21.645 8.162,21.257 C8.196,20.95 8.036,20.722 7.738,20.64 C7.48,20.568 7.207,20.552 6.938,20.524 C6.609,20.489 6.255,20.531 5.953,20.426 C5.205,20.168 4.525,19.775 3.945,19.22 C3.707,18.991 3.586,18.785 3.74,18.432 C3.876,18.125 3.7,17.821 3.397,17.703 C3.26,17.652 3.1,17.664 2.957,17.62 C2.678,17.533 2.501,17.012 2.685,16.789 C2.857,16.582 3.066,16.405 3.257,16.214 C3.471,16.002 3.695,15.798 3.892,15.571 C4.016,15.428 4.047,15.236 3.938,15.064 C3.829,14.892 3.646,14.851 3.459,14.878 C3.313,14.899 3.16,14.936 3.031,15.004 C2.845,15.102 2.677,15.233 2.505,15.356 C2.264,15.528 2.18,15.49 2.104,15.197 C2.052,14.999 2.092,14.836 2.234,14.701 C2.694,14.263 3.167,13.838 3.621,13.393 C3.813,13.205 3.985,12.991 4.142,12.771 C4.233,12.644 4.224,12.478 4.128,12.344 C4.032,12.213 3.885,12.161 3.728,12.186 C3.421,12.234 3.158,12.381 2.931,12.591 C2.709,12.797 2.499,13.015 2.275,13.217 C2.226,13.26 2.138,13.259 2.068,13.279 C2.055,13.221 2.023,13.16 2.032,13.105 C2.114,12.538 2.199,11.971 2.291,11.405 C2.355,11 2.559,10.68 2.89,10.428 C3.106,10.264 3.302,10.071 3.487,9.872 C3.782,9.555 4.13,9.325 4.522,9.153 C4.716,9.069 4.918,8.991 5.094,8.878 C5.783,8.436 6.548,8.306 7.348,8.315 C7.952,8.322 8.557,8.345 9.162,8.348 C9.433,8.35 9.705,8.334 9.974,8.305 C10.148,8.285 10.264,8.05 10.199,7.878 C10.157,7.767 10.106,7.653 10.038,7.558 C9.818,7.257 9.522,7.047 9.183,6.903 C8.621,6.666 8.036,6.533 7.423,6.518 C6.289,6.492 5.194,6.694 4.143,7.105 C2.922,7.581 1.928,8.372 1.275,9.508 C0.495,10.864 0.137,12.357 0.021,13.917 C-0.054,14.923 0.103,15.908 0.253,16.889 C0.396,17.82 0.733,18.701 1.306,19.469 C2.134,20.583 3.173,21.347 4.615,21.458 C5.004,21.487 5.388,21.586 5.771,21.673 C6.161,21.761 6.214,21.85 6.225,22.222 C6.251,23.181 5.98,24.073 5.607,24.94 C5.488,25.217 5.331,25.478 5.203,25.752 C5.113,25.943 5.024,26.138 4.969,26.34 C4.881,26.659 4.985,26.944 5.224,27.162 C5.442,27.36 5.687,27.392 5.98,27.289 C6.722,27.027 7.467,26.78 8.118,26.316 C9.246,25.514 10.158,24.524 10.788,23.283 C11.038,22.791 11.04,22.805 11.599,22.837 C12.203,22.871 12.808,22.879 13.412,22.899 C14.747,22.891 16.063,22.745 17.382,22.545 C18.444,22.384 19.232,21.831 19.87,21.031 C20.29,20.503 20.536,19.885 20.529,19.188 C20.526,18.917 20.564,18.645 20.571,18.373 C20.585,17.859 20.594,17.345 20.595,16.831 C20.596,16.616 20.547,16.41 20.39,16.246 C20.186,16.035 19.943,15.929 19.652,15.986 L19.652,15.986 Z" id="Shape"></path>
            </g>
        </g>
    </g>
</svg>