<?xml version="1.0" encoding="UTF-8" standalone="no"?>
<svg width="200px" height="200px" viewBox="0 0 50 50" version="1.1" xmlns="http://www.w3.org/2000/svg" xmlns:xlink="http://www.w3.org/1999/xlink" xmlns:sketch="http://www.bohemiancoding.com/sketch/ns">
    <!-- Generator: Sketch 3.2.2 (9983) - http://www.bohemiancoding.com/sketch -->
    <title>Slice 1</title>
    <desc>Created with Sketch.</desc>
    <defs></defs>
    <g id="Page-1" stroke="none" stroke-width="1" fill="none" fill-rule="evenodd" sketch:type="MSPage">
        <g id="icons" sketch:type="MSLayerGroup" transform="translate(6.000000, 11.000000)" fill="#FFFFFF">
            <g id="airplane" sketch:type="MSShapeGroup">
                <path d="M30.022,0.867 C29.901,0.872 29.892,0.988 29.739,0.961 C29.39,1.02 29.188,1.226 28.892,1.337 C28.654,1.538 28.24,1.563 28.046,1.808 C27.379,1.988 26.814,2.269 26.258,2.56 C25.578,2.726 25.072,3.068 24.377,3.218 C23.821,3.509 23.143,3.678 22.59,3.97 C21.235,4.309 20.169,4.935 18.828,5.287 C17.553,5.704 16.361,6.206 14.971,6.509 C14.741,6.686 14.326,6.68 14.03,6.792 C13.726,6.927 13.333,6.972 12.996,7.074 C12.364,7.29 11.763,7.536 11.02,7.64 C10.51,7.976 9.665,7.977 9.139,8.299 C8.702,8.268 8.511,8.486 8.104,8.487 C7.864,8.685 7.373,8.634 7.164,8.864 C5.695,9.087 4.624,9.711 3.213,9.992 C2.91,10.097 2.655,10.249 2.273,10.274 C2.063,10.503 1.572,10.452 1.332,10.65 C0.91,10.667 0.632,10.828 0.486,11.12 C0.235,11.309 -0.069,11.444 0.016,11.968 C0.592,12.614 1.661,12.767 2.461,13.19 C3.181,13.692 4.224,13.873 5.001,14.319 C5.982,14.56 6.659,15.106 7.635,15.354 C7.935,15.65 8.463,15.717 8.763,16.012 C9.054,16.037 9.186,16.217 9.422,16.294 C9.506,16.524 9.947,16.397 9.893,16.765 C9.755,18.509 9.586,20.221 9.516,22.033 C9.585,23.042 9.361,23.76 9.422,24.761 L9.422,26.173 C9.318,26.777 9.749,26.849 9.986,27.113 C11.215,27.277 11.435,26.429 12.055,25.984 C12.204,25.6 12.545,25.407 12.715,25.043 C12.905,24.669 13.224,24.424 13.372,24.008 C14.008,23.451 14.603,22.856 15.16,22.221 C15.515,21.982 15.71,21.58 16.007,21.28 C16.421,21.068 16.549,20.569 17.042,20.434 C18.26,21.033 19.614,21.5 20.804,22.127 C21.466,22.375 22.082,22.669 22.686,22.974 C23.327,23.242 23.844,23.635 24.473,23.915 C24.69,24.199 25.063,24.329 25.226,24.667 C25.58,24.846 25.657,25.303 26.26,25.232 C26.666,25.293 26.788,25.069 27.012,24.95 C27.13,24.691 27.492,24.678 27.671,24.48 C27.743,23.997 27.508,23.765 27.671,23.445 C28.507,22.086 28.783,20.167 29.082,18.272 C29.512,16.476 29.826,14.563 30.116,12.627 C30.127,12.105 30.317,11.761 30.305,11.216 C30.511,10.857 30.447,10.229 30.681,9.899 C30.696,9.381 30.885,9.037 30.962,8.582 C31.103,8.159 31.134,7.625 31.339,7.265 C31.305,6.698 31.561,6.421 31.526,5.854 C31.729,5.774 31.492,5.254 31.714,5.196 C31.772,4.971 31.596,4.513 31.809,4.443 C31.82,4.172 31.757,3.828 31.903,3.69 C31.96,3.466 31.784,3.008 31.997,2.938 C32.026,2.345 31.812,1.995 31.715,1.527 C31.369,1.088 30.539,1.134 30.022,0.867 L30.022,0.867 Z M5.658,12.438 C4.89,12.296 4.368,11.909 3.588,11.78 C3.756,11.477 4.402,11.653 4.623,11.404 C5.095,11.436 5.281,11.184 5.753,11.216 C5.823,11.726 5.604,11.944 5.658,12.438 L5.658,12.438 Z M8.009,13.472 C7.521,13.24 6.94,13.1 6.693,12.625 L6.693,10.932 C7.241,10.917 7.502,10.613 8.103,10.65 C8.019,11.537 7.985,12.475 8.009,13.472 L8.009,13.472 Z M9.044,13.942 C8.724,12.883 8.749,11.478 8.387,10.462 C8.918,10.399 9.421,10.306 9.797,10.086 C9.906,10.07 9.964,10.107 9.985,10.18 C9.92,11.477 9.721,13.276 10.079,14.414 C9.669,14.321 9.402,14.087 9.044,13.942 L9.044,13.942 Z M13.56,9.051 C13.93,8.982 14.242,8.855 14.595,8.769 C14.611,9.695 14.43,10.816 15.253,10.933 C15.951,10.941 15.844,10.144 15.911,9.522 C15.882,9.144 15.846,8.772 15.629,8.581 C16.08,8.287 16.608,8.185 17.134,8.017 C17.593,7.87 17.96,7.767 18.358,7.641 C18.473,7.604 18.493,7.555 18.64,7.547 C18.733,7.542 18.702,7.464 18.733,7.453 C19.25,7.282 19.818,7.166 20.333,6.982 C20.867,6.791 21.372,6.494 21.932,6.418 C21.922,6.305 22.069,6.36 21.932,6.418 C20.61,7.447 19.225,8.414 17.981,9.522 C17.303,10.036 16.699,10.622 16.006,11.121 C15.733,11.445 15.375,11.682 15.065,11.969 C14.696,12.195 14.471,12.566 14.03,12.721 C13.794,12.267 13.628,11.745 13.56,11.121 L13.56,9.051 L13.56,9.051 Z M11.02,9.803 C11.481,9.636 12.056,9.585 12.431,9.333 C12.541,9.318 12.599,9.354 12.619,9.426 C12.606,10.605 12.349,11.765 12.619,12.719 C12.704,12.885 12.848,12.993 12.902,13.189 C13.082,13.229 13.307,13.223 13.278,13.471 C12.687,13.695 12.378,14.202 11.773,14.412 C11.034,13.896 11.1,12.577 11.116,11.307 C11,10.89 11.013,10.345 11.02,9.803 L11.02,9.803 Z M15.629,19.398 C15.343,19.488 15.251,19.772 14.782,19.68 C14.244,20.22 13.768,21.046 13.277,21.468 C13.181,21.549 13.002,21.557 12.901,21.656 C12.758,21.798 12.673,22.051 12.525,22.22 C12.35,22.421 12.11,22.504 11.961,22.69 C11.931,22.727 11.98,22.834 11.961,22.878 C11.947,22.907 11.797,22.94 11.772,22.972 C11.552,23.279 11.397,23.614 11.208,23.913 C10.92,23.709 11.298,23.383 11.208,23.066 L11.208,19.867 C11.408,18.607 11.194,17.45 11.584,16.481 C11.831,16.163 12.349,16.117 12.713,15.917 C12.971,15.611 13.39,15.465 13.748,15.259 C14.377,14.728 14.902,14.093 15.535,13.566 C15.719,13.405 16.061,13.402 16.288,13.284 C17.105,12.596 17.923,11.91 18.733,11.215 C19.158,10.886 19.604,10.579 19.957,10.18 C20.435,9.874 20.895,9.551 21.273,9.146 C21.608,9.104 21.685,8.805 21.931,8.675 C22.204,8.571 22.383,8.374 22.59,8.204 C23.057,7.919 23.453,7.563 24.001,7.358 C24.369,6.974 24.941,6.793 25.318,6.417 C25.914,6.229 26.198,5.729 26.824,5.57 C26.813,5.456 26.96,5.512 26.824,5.57 C24.892,7.809 23.18,10.268 21.086,12.343 C21.012,12.771 20.577,12.837 20.427,13.189 C20.084,13.379 19.918,13.747 19.674,14.036 C19.317,14.181 19.278,14.644 18.922,14.788 C18.778,15.178 18.376,15.308 18.264,15.729 C17.187,16.754 16.617,18.286 15.629,19.398 L15.629,19.398 Z M17.793,18.646 C17.949,18.458 18.045,18.209 18.357,18.176 C18.285,18.53 18.471,18.625 18.451,18.928 C18.216,18.85 18.082,18.67 17.793,18.646 L17.793,18.646 Z M28.329,11.496 C27.998,13.769 27.633,16.006 27.105,18.082 C27.032,18.447 26.809,18.663 26.635,18.928 C26.512,20.216 26.343,21.459 25.976,22.503 C25.581,22.397 25.367,22.109 25.035,21.939 C24.709,21.764 24.336,21.635 24.094,21.375 C23.302,21.194 22.803,20.721 22.024,20.528 C21.889,20.193 21.929,19.683 21.648,19.493 C21.116,19.369 21.181,19.842 20.896,19.964 C20.383,19.818 20.021,19.524 19.484,19.4 C19.302,18.798 19.014,18.303 18.827,17.707 C19.054,16.931 19.834,16.709 20.143,16.014 C20.638,15.537 20.985,14.912 21.46,14.416 C22.267,13.247 23.315,12.32 24.188,11.217 C25.206,10.26 26.043,9.121 27.009,8.113 C27.057,7.912 27.256,7.886 27.385,7.737 C27.627,7.46 27.77,7.191 28.044,6.891 C28.114,6.814 28.316,6.79 28.327,6.609 C28.334,6.465 28.902,5.957 29.079,5.762 C29.324,5.491 29.542,5.137 29.737,5.009 C29.801,4.967 29.839,5.065 29.832,5.103 C29.375,7.275 28.655,9.189 28.329,11.496 L28.329,11.496 Z" id="Shape"></path>
            </g>
        </g>
    </g>
</svg>