<?xml version="1.0" encoding="UTF-8" standalone="no"?>
<svg width="200px" height="200px" viewBox="0 0 50 50" version="1.1" xmlns="http://www.w3.org/2000/svg" xmlns:xlink="http://www.w3.org/1999/xlink" xmlns:sketch="http://www.bohemiancoding.com/sketch/ns">
    <!-- Generator: Sketch 3.2.2 (9983) - http://www.bohemiancoding.com/sketch -->
    <title>Slice 1</title>
    <desc>Created with Sketch.</desc>
    <defs></defs>
    <g id="Page-1" stroke="none" stroke-width="1" fill="none" fill-rule="evenodd" sketch:type="MSPage">
        <g id="icons" sketch:type="MSLayerGroup" transform="translate(-126.000000, -11.000000)" fill="#FFFFFF">
            <g id="share" transform="translate(135.000000, 20.000000)" sketch:type="MSShapeGroup">
                <path d="M25.933,21.553 C25.809,21.522 25.727,21.477 25.642,21.455 C25.518,21.425 25.438,21.381 25.352,21.359 C24.873,21.239 24.61,21.31 24.094,21.262 C23.879,21.241 23.639,21.158 23.418,21.165 C23.133,21.175 22.866,21.348 22.546,21.262 C22.144,21.504 21.647,21.652 21.289,21.939 C21.072,22.044 20.805,22.099 20.612,22.229 C20.301,22.274 20.27,22.597 19.934,22.617 C19.234,22.025 18.38,21.592 17.709,20.972 C17.257,20.779 16.869,20.521 16.548,20.199 C16.096,20.006 15.708,19.748 15.388,19.425 C14.511,19.011 13.851,18.381 12.969,17.973 C12.676,17.621 12.162,17.491 11.809,17.2 C11.442,16.923 10.896,16.823 10.648,16.427 C10.745,16.168 10.847,15.917 10.841,15.556 C11.04,15.11 11.63,15.056 11.904,14.687 C12.394,14.499 12.681,14.108 13.162,13.912 C13.444,13.549 13.958,13.418 14.226,13.041 C14.707,12.846 14.994,12.456 15.483,12.268 C16.179,11.643 17.005,11.146 17.805,10.624 C18.167,10.31 18.603,10.067 18.965,9.753 C19.521,9.631 19.897,9.329 20.126,8.883 C20.425,9.358 20.945,9.612 21.384,9.946 C22.053,10.115 22.728,10.279 23.513,10.334 C24.328,10.224 25.042,10.145 25.64,9.85 C26.241,9.555 26.671,9.11 27.091,8.689 C27.511,8.27 27.959,7.821 28.252,7.239 C28.563,6.62 28.669,5.927 28.735,5.111 C28.694,4.636 28.605,4.208 28.543,3.757 C27.178,1.493 24.992,-0.41 21.19,0.081 C21.107,0.224 20.947,0.289 20.707,0.274 C19.617,1.28 18.959,2.719 18.772,4.627 C18.069,5.116 17.314,5.556 16.643,6.079 C15.837,6.497 15.201,7.087 14.323,7.433 C14.052,7.775 13.542,7.877 13.259,8.206 C12.785,8.345 12.538,8.711 12.098,8.884 C11.788,9.187 11.343,9.355 11.034,9.657 C10.595,9.83 10.347,10.195 9.873,10.335 C9.476,9.927 8.904,9.691 8.422,9.367 C7.4,9.163 6.33,9.009 5.039,9.074 C5.02,9.218 4.805,9.163 4.651,9.171 C4.569,9.314 4.409,9.378 4.167,9.364 C3.856,9.601 3.565,9.858 3.2,10.041 C2.116,11.182 1.289,12.578 0.976,14.491 C0.953,15.609 1.046,16.613 1.168,17.586 C1.857,19.702 3.416,20.95 6.296,20.875 C7.149,20.762 7.855,20.5 8.423,20.102 C8.336,20.706 8.601,20.956 8.907,21.166 C9.422,21.378 9.63,21.08 10.068,20.973 C10.412,21.21 10.641,21.56 11.035,21.746 C11.322,22.039 11.594,22.348 12.003,22.52 C12.182,22.921 12.683,23.001 12.873,23.389 C13.338,23.505 13.459,23.964 13.936,24.067 C14.173,24.412 14.576,24.589 14.904,24.841 C15.236,25.09 15.539,25.366 15.968,25.519 C16.234,25.832 16.664,25.983 17.031,26.195 C17.405,26.435 17.895,26.556 18.29,26.776 L18.29,29.194 C18.502,29.53 18.616,29.964 18.869,30.257 C19.096,30.612 19.407,30.882 19.74,31.128 C20.314,31.683 21.264,31.861 22.256,31.999 L23.997,31.999 C26.679,31.489 28.539,30.157 29.026,27.452 L29.026,25.52 C28.876,24.413 28.341,23.689 27.866,22.908 C27.317,22.479 26.601,21.72 25.933,21.553 L25.933,21.553 Z M23.999,8.203 C24.058,7.971 24.138,7.762 24.095,7.43 C24.437,7.444 24.371,7.864 24.483,8.107 C24.249,8.067 24.272,8.283 23.999,8.203 L23.999,8.203 Z M23.127,2.786 C23.317,2.584 23.2,2.143 23.127,1.916 C24.895,1.954 25.622,3.033 26.609,3.851 C26.705,4.174 26.917,4.382 26.997,4.721 C27.064,5.951 26.406,6.453 25.933,7.139 C25.491,7.343 25.284,7.781 24.771,7.913 C24.537,7.343 24.361,6.713 24.094,6.172 C23.8,6.168 23.718,6.377 23.515,6.463 C23.524,6.579 23.373,6.522 23.515,6.463 C23.67,5.979 23.619,5.397 23.321,5.109 C23.026,5.039 23.037,5.276 22.741,5.206 C22.93,4.525 23.221,3.945 23.611,3.465 C23.57,3.118 23.368,2.933 23.127,2.786 L23.127,2.786 Z M22.933,7.719 C23.123,7.764 23.108,8.399 22.741,8.203 C22.782,8.02 22.949,7.961 22.933,7.719 L22.933,7.719 Z M10.842,11.782 C11.148,11.799 11.165,11.525 11.519,11.59 C11.721,11.645 11.795,11.829 12.1,11.782 C12.655,11.628 12.942,11.206 12.97,10.524 C13.964,9.97 14.779,9.238 15.872,8.783 C16.22,8.357 16.895,8.26 17.226,7.816 C17.74,7.588 18.212,7.32 18.58,6.946 L18.87,6.946 C18.898,7.402 19.266,7.517 19.353,7.913 L18.58,7.913 C17.821,8.25 17.223,8.748 16.549,9.171 C15.968,9.653 15.248,9.998 14.711,10.525 C14.329,10.692 14.017,10.926 13.744,11.203 C13.308,11.284 13.211,11.702 12.776,11.783 C12.588,12.142 12.118,12.221 11.905,12.557 C11.514,12.682 11.373,13.056 10.939,13.137 C11.015,12.577 10.798,12.311 10.842,11.782 L10.842,11.782 Z M4.072,18.94 C4.122,18.797 4.215,18.697 4.264,18.553 C4.49,18.618 4.524,18.874 4.748,18.94 C4.633,19.201 4.245,18.94 4.072,18.94 L4.072,18.94 Z M5.522,19.038 C5.655,18.783 5.93,18.671 6.005,18.36 C6.166,18.458 6.109,18.771 6.199,18.94 C6.074,19.074 5.779,19.037 5.522,19.038 L5.522,19.038 Z M9.101,14.297 C9.118,14.638 8.775,14.615 8.713,14.878 C8.684,15.264 8.709,15.593 8.907,15.748 C8.608,16.868 8.15,17.83 7.359,18.457 C6.929,17.693 7.054,16.375 6.391,15.846 C6.011,16.014 5.524,16.075 5.328,16.426 C5.17,16.36 5.296,16.244 5.328,16.136 C5.357,16.038 5.379,15.899 5.425,15.748 C5.442,15.697 5.61,15.496 5.618,15.459 C5.645,15.336 5.597,15.195 5.618,15.071 C5.511,14.759 5.31,14.541 4.844,14.588 C4.877,14.234 5.228,14.197 5.135,13.718 C5.044,13.339 4.647,13.635 4.362,13.62 C4.622,13.075 5.327,12.974 5.522,12.363 C5.528,11.775 5.111,11.612 4.651,11.492 C4.863,11.252 5.214,11.152 5.425,10.912 C6.655,10.842 7.656,11.001 8.423,11.395 C8.511,11.566 8.64,11.695 8.811,11.782 C8.854,12.029 8.947,12.227 9.101,12.363 L9.101,14.297 L9.101,14.297 Z M12.1,20.875 C11.517,20.657 12.05,19.963 12.003,19.425 C12.205,19.544 12.379,19.692 12.583,19.812 C12.49,20.233 12.249,20.508 12.1,20.875 L12.1,20.875 Z M13.067,21.553 C13.206,21.24 13.311,20.893 13.358,20.489 C13.717,20.743 13.546,21.526 13.745,21.94 C13.426,21.902 13.317,21.656 13.067,21.553 L13.067,21.553 Z M18.871,24.551 C18.674,24.758 18.488,24.525 18.292,24.454 C18.141,24.314 17.839,24.326 17.711,24.164 C17.307,24.186 17.254,24.007 16.938,24.164 C16.559,23.769 15.97,23.584 15.584,23.197 C14.994,23.013 14.733,22.5 14.133,22.326 C14.316,21.802 14.095,21.329 14.036,20.779 C14.118,20.76 14.127,20.816 14.133,20.875 C15.038,21.421 15.903,22.008 16.744,22.617 C17.157,22.913 17.621,23.158 18.002,23.486 C18.346,23.779 19.196,23.89 18.871,24.551 L18.871,24.551 Z M20.419,28.711 C20.081,28.661 20.276,28.079 20.225,27.744 C20.604,27.977 20.643,28.303 20.419,28.711 L20.419,28.711 Z M26.998,27.938 C26.931,28.05 26.899,28.053 26.804,28.131 C26.772,28.156 26.829,28.289 26.804,28.324 C26.63,28.552 26.301,28.807 26.03,29 C25.723,29.22 25.358,29.459 24.966,29.484 C24.76,29.141 24.646,28.709 24.386,28.421 C24.517,28.136 24.506,27.822 24.289,27.647 C23.253,27.635 22.763,29.078 23.321,29.776 C23.69,29.942 23.925,29.489 23.999,29.679 C24.012,30.078 23.324,29.78 23.031,29.872 C22.647,29.836 22.104,29.96 21.871,29.775 C21.837,28.872 22.282,28.445 22.45,27.744 C22.635,27.475 22.715,27.105 22.933,26.873 C23.114,26.602 23.365,26.4 23.418,26.002 C23.424,25.672 23.059,25.716 22.74,25.713 C22.889,25.088 23.395,24.819 23.61,24.262 C23.503,23.813 22.828,23.663 22.353,23.874 C22.362,23.991 22.211,23.934 22.353,23.874 C22.699,23.504 23.135,23.262 23.707,23.197 C24.4,23.12 25.561,23.271 25.738,23.486 C25.761,23.515 25.897,23.469 25.932,23.486 C26.047,23.544 26.143,23.744 26.319,23.681 C26.734,24.105 27.075,24.601 27.382,25.131 C27.464,26.342 27.334,27.358 26.998,27.938 L26.998,27.938 Z" id="Shape"></path>
            </g>
        </g>
    </g>
</svg>